<svg width="30" height="30" viewBox="0 0 30 30" fill="none" xmlns="http://www.w3.org/2000/svg">
<path d="M12.4526 13.3993C12.3226 13.601 12.1088 13.7372 11.869 13.7467C11.2428 13.7717 10.6289 13.6825 10.0273 13.4792C9.30502 13.2351 8.66313 12.8625 8.10161 12.3613C7.55741 11.8536 7.15627 11.2532 6.89817 10.5601C6.49166 9.46847 6.40416 8.46519 6.63566 7.55029C6.88449 6.62894 7.3397 5.83792 8.00128 5.17722C8.68019 4.51006 9.47017 4.00872 10.3712 3.67319C10.7698 3.52478 11.2072 3.40135 11.6835 3.3029C11.8172 3.27527 11.9505 3.25088 12.0834 3.22973C12.6567 3.13853 13.1604 3.56739 13.241 4.14226C13.3295 4.77465 12.877 5.35196 12.2538 5.49084C12.247 5.49234 12.2403 5.49384 12.2336 5.49535C11.833 5.58532 11.4768 5.68838 11.1649 5.80452C10.5411 6.03681 10.0285 6.35593 9.62723 6.76186C9.22593 7.16779 8.96086 7.62165 8.83202 8.12343C8.69673 8.60789 8.72587 9.11004 8.91944 9.62987C9.09366 10.0977 9.38171 10.4739 9.78358 10.7583C10.1963 11.0189 10.6623 11.2105 11.1814 11.3328C11.694 11.4379 12.1928 11.4791 12.6776 11.4564C13.0474 11.4255 13.4101 11.9142 13.209 12.2261L12.4526 13.3993Z" fill="url(#paint0_linear_40432_2422)"/>
<mask id="path-2-inside-1_40432_2422" fill="white">
<path d="M24.4662 20.5958C25.1888 20.803 25.6162 21.5635 25.297 22.2441C24.658 23.6067 23.6667 24.7842 22.415 25.6485C20.7878 26.7721 18.8213 27.2967 16.8507 27.1329C14.88 26.9692 13.0271 26.1272 11.6076 24.7505C10.1882 23.3737 9.28999 21.5474 9.06614 19.5826C8.84228 17.6179 9.3066 15.6363 10.38 13.9755C11.4534 12.3148 13.0694 11.0775 14.9527 10.4747C16.836 9.87183 18.8701 9.94064 20.7084 10.6694C22.1223 11.2299 23.3532 12.1543 24.2823 13.3382C24.7464 13.9296 24.501 14.7667 23.8436 15.1312C23.1861 15.4956 22.3675 15.2433 21.8607 14.6881C21.2684 14.0392 20.5328 13.5282 19.7051 13.2001C18.4523 12.7034 17.0661 12.6565 15.7826 13.0674C14.4991 13.4782 13.3978 14.3214 12.6663 15.4532C11.9348 16.585 11.6184 17.9355 11.7709 19.2745C11.9235 20.6134 12.5356 21.8581 13.5029 22.7963C14.4703 23.7346 15.7331 24.3084 17.0761 24.42C18.4191 24.5316 19.7593 24.1741 20.8682 23.4084C21.6009 22.9025 22.2026 22.2391 22.6338 21.4736C23.0027 20.8186 23.7436 20.3886 24.4662 20.5958Z"/>
</mask>
<path d="M24.4662 20.5958C25.1888 20.803 25.6162 21.5635 25.297 22.2441C24.658 23.6067 23.6667 24.7842 22.415 25.6485C20.7878 26.7721 18.8213 27.2967 16.8507 27.1329C14.88 26.9692 13.0271 26.1272 11.6076 24.7505C10.1882 23.3737 9.28999 21.5474 9.06614 19.5826C8.84228 17.6179 9.3066 15.6363 10.38 13.9755C11.4534 12.3148 13.0694 11.0775 14.9527 10.4747C16.836 9.87183 18.8701 9.94064 20.7084 10.6694C22.1223 11.2299 23.3532 12.1543 24.2823 13.3382C24.7464 13.9296 24.501 14.7667 23.8436 15.1312C23.1861 15.4956 22.3675 15.2433 21.8607 14.6881C21.2684 14.0392 20.5328 13.5282 19.7051 13.2001C18.4523 12.7034 17.0661 12.6565 15.7826 13.0674C14.4991 13.4782 13.3978 14.3214 12.6663 15.4532C11.9348 16.585 11.6184 17.9355 11.7709 19.2745C11.9235 20.6134 12.5356 21.8581 13.5029 22.7963C14.4703 23.7346 15.7331 24.3084 17.0761 24.42C18.4191 24.5316 19.7593 24.1741 20.8682 23.4084C21.6009 22.9025 22.2026 22.2391 22.6338 21.4736C23.0027 20.8186 23.7436 20.3886 24.4662 20.5958Z" stroke="url(#paint1_linear_40432_2422)" stroke-width="3.02557" mask="url(#path-2-inside-1_40432_2422)"/>
<circle cx="24.613" cy="17.8251" r="0.907672" transform="rotate(16 24.613 17.8251)" stroke="url(#paint2_linear_40432_2422)" stroke-width="0.605115"/>
<circle cx="16.4596" cy="3.99889" r="0.907672" transform="rotate(16 16.4596 3.99889)" stroke="url(#paint3_linear_40432_2422)" stroke-width="0.605115"/>
<defs>
<linearGradient id="paint0_linear_40432_2422" x1="5.7736" y1="0.78606" x2="39.2142" y2="12.8731" gradientUnits="userSpaceOnUse">
<stop stop-color="#A854E9"/>
<stop offset="1" stop-color="#4F91FC"/>
</linearGradient>
<linearGradient id="paint1_linear_40432_2422" x1="15.1222" y1="3.17754" x2="53.6369" y2="62.2035" gradientUnits="userSpaceOnUse">
<stop stop-color="#A854E9"/>
<stop offset="1" stop-color="#4F91FC"/>
</linearGradient>
<linearGradient id="paint2_linear_40432_2422" x1="23.6789" y1="15.819" x2="31.2247" y2="22.3497" gradientUnits="userSpaceOnUse">
<stop stop-color="#A854E9"/>
<stop offset="1" stop-color="#4F91FC"/>
</linearGradient>
<linearGradient id="paint3_linear_40432_2422" x1="15.5255" y1="1.9928" x2="23.0714" y2="8.52354" gradientUnits="userSpaceOnUse">
<stop stop-color="#A854E9"/>
<stop offset="1" stop-color="#4F91FC"/>
</linearGradient>
</defs>
</svg>
